<mxfile host="app.diagrams.net" modified="2021-08-19T17:59:13.007Z" agent="5.0 (Windows NT 10.0; Win64; x64) AppleWebKit/537.36 (KHTML, like Gecko) Chrome/92.0.4515.159 Safari/537.36" etag="eFfzMKuS3TOgF22ynIJ5" version="14.9.8" type="github">
  <diagram id="M_5o9T0Zfa3jsSFbfTRQ" name="Page-1">
    <mxGraphModel dx="1038" dy="547" grid="1" gridSize="10" guides="1" tooltips="1" connect="1" arrows="1" fold="1" page="1" pageScale="1" pageWidth="827" pageHeight="1169" math="0" shadow="0">
      <root>
        <mxCell id="0" />
        <mxCell id="1" parent="0" />
        <mxCell id="R-2MHPUn--8WQAwCCb6K-1" value="" style="rounded=0;whiteSpace=wrap;html=1;" parent="1" vertex="1">
          <mxGeometry x="430" y="280" width="120" height="60" as="geometry" />
        </mxCell>
        <mxCell id="FCwzWYWyEZL-nI-lO-xA-1" value="Class" style="whiteSpace=wrap;html=1;align=center;" parent="1" vertex="1">
          <mxGeometry x="760" y="120" width="100" height="40" as="geometry" />
        </mxCell>
        <mxCell id="OgyhvdS7l7weuyLec3pg-1" value="" style="rounded=0;whiteSpace=wrap;html=1;" parent="1" vertex="1">
          <mxGeometry x="780" y="390" width="120" height="60" as="geometry" />
        </mxCell>
        <mxCell id="FCwzWYWyEZL-nI-lO-xA-2" value="" style="ellipse;whiteSpace=wrap;html=1;align=center;" parent="1" vertex="1">
          <mxGeometry x="790" y="20" width="100" height="40" as="geometry" />
        </mxCell>
        <mxCell id="gWIL4lwPZoUMI15kpGQ2-1" value="" style="ellipse;whiteSpace=wrap;html=1;align=center;" vertex="1" parent="1">
          <mxGeometry x="490" y="2210" width="100" height="40" as="geometry" />
        </mxCell>
        <mxCell id="FCwzWYWyEZL-nI-lO-xA-3" value="ClassID" style="ellipse;whiteSpace=wrap;html=1;align=center;fontStyle=4;" parent="1" vertex="1">
          <mxGeometry x="890" y="70" width="100" height="40" as="geometry" />
        </mxCell>
        <mxCell id="gWIL4lwPZoUMI15kpGQ2-2" value="Entity" style="whiteSpace=wrap;html=1;align=center;" vertex="1" parent="1">
          <mxGeometry x="1020" y="2110" width="100" height="40" as="geometry" />
        </mxCell>
        <mxCell id="FCwzWYWyEZL-nI-lO-xA-4" value="Attribute" style="ellipse;whiteSpace=wrap;html=1;align=center;" vertex="1" parent="1">
          <mxGeometry x="910" y="140" width="100" height="40" as="geometry" />
        </mxCell>
        <mxCell id="gWIL4lwPZoUMI15kpGQ2-3" value="Entity" style="whiteSpace=wrap;html=1;align=center;" vertex="1" parent="1">
          <mxGeometry x="670" y="2160" width="100" height="40" as="geometry" />
        </mxCell>
        <mxCell id="gWIL4lwPZoUMI15kpGQ2-4" value="Entity" style="whiteSpace=wrap;html=1;align=center;" vertex="1" parent="1">
          <mxGeometry x="600" y="1580" width="100" height="40" as="geometry" />
        </mxCell>
        <mxCell id="gWIL4lwPZoUMI15kpGQ2-5" value="" style="ellipse;whiteSpace=wrap;html=1;align=center;" vertex="1" parent="1">
          <mxGeometry x="940" y="2250" width="100" height="40" as="geometry" />
        </mxCell>
        <mxCell id="gWIL4lwPZoUMI15kpGQ2-6" value="" style="ellipse;whiteSpace=wrap;html=1;align=center;" vertex="1" parent="1">
          <mxGeometry x="770" y="2280" width="100" height="40" as="geometry" />
        </mxCell>
        <mxCell id="gWIL4lwPZoUMI15kpGQ2-7" value="" style="ellipse;whiteSpace=wrap;html=1;align=center;" vertex="1" parent="1">
          <mxGeometry x="590" y="2270" width="100" height="40" as="geometry" />
        </mxCell>
      </root>
    </mxGraphModel>
  </diagram>
</mxfile>
